<?xml version="1.0" standalone="no"?>
<!DOCTYPE svg PUBLIC "-//W3C//DTD SVG 20010904//EN"
 "http://www.w3.org/TR/2001/REC-SVG-20010904/DTD/svg10.dtd">
<svg version="1.0" xmlns="http://www.w3.org/2000/svg"
 width="593.000000pt" height="593.000000pt" viewBox="0 0 593.000000 593.000000"
 preserveAspectRatio="xMidYMid meet">

<g transform="translate(0.000000,593.000000) scale(0.100000,-0.100000)"
fill="#000000" stroke="none">
<path d="M0 2965 l0 -2965 2965 0 2965 0 0 2965 0 2965 -2965 0 -2965 0 0
-2965z m2870 1610 c120 -18 189 -39 263 -78 75 -39 131 -95 147 -143 19 -60
36 -74 89 -74 113 0 212 -50 259 -129 25 -43 27 -54 26 -156 0 -130 -18 -185
-89 -280 -25 -33 -45 -61 -45 -62 0 -1 27 -16 60 -34 120 -64 190 -154 190
-244 0 -184 -351 -365 -802 -414 -244 -27 -580 4 -699 65 -26 13 -51 29 -54
35 -5 7 -24 8 -54 4 -104 -14 -309 63 -415 156 -87 77 -108 175 -55 255 52 76
130 114 405 194 l72 20 -20 52 c-27 72 -62 222 -83 360 -15 93 -16 125 -7 155
6 21 14 55 17 75 15 95 169 198 355 237 117 24 305 27 440 6z m-1342 -1748
c10 -51 -239 -322 -395 -431 -46 -32 -92 -71 -104 -87 l-20 -29 60 0 c49 0 59
3 55 15 -5 12 1 14 38 9 37 -5 54 -1 105 24 52 27 76 50 173 167 136 166 270
307 316 336 38 23 64 20 64 -9 0 -64 -250 -330 -410 -437 -36 -24 -76 -58 -89
-76 l-24 -32 84 6 c99 6 152 24 235 77 68 45 124 54 124 21 0 -28 -38 -51 -82
-51 -31 0 -40 -5 -53 -30 -21 -41 -19 -59 11 -66 67 -17 215 34 339 118 80 53
135 65 135 29 0 -28 -38 -51 -82 -51 -34 0 -40 -4 -55 -35 -13 -28 -14 -37 -3
-50 30 -36 151 -7 299 71 46 24 87 42 90 38 9 -8 -24 -31 -109 -74 -95 -48
-169 -70 -236 -70 -60 0 -78 15 -72 60 3 20 1 29 -6 26 -165 -73 -184 -79
-248 -84 -84 -6 -102 5 -95 59 l5 37 -57 -21 c-35 -12 -91 -22 -148 -25 l-93
-4 -83 -117 c-117 -161 -224 -324 -254 -382 -13 -27 -31 -49 -39 -49 -7 0 -14
2 -14 5 0 17 159 258 282 429 44 59 77 110 74 113 -6 6 -77 8 -178 5 l-77 -2
-58 -77 c-94 -128 -261 -379 -284 -427 -12 -25 -27 -46 -35 -46 -8 0 -14 3
-14 7 0 19 143 239 272 416 43 59 78 111 78 116 0 4 -24 13 -54 20 -56 12 -97
41 -60 41 16 1 -79 39 -98 40 -4 0 -10 -15 -13 -34 -14 -71 -69 -125 -111
-109 -13 5 -15 16 -11 48 l4 43 -64 -29 c-156 -70 -355 -118 -429 -105 -42 8
-74 48 -74 92 0 153 252 437 455 513 75 28 167 29 195 1 53 -53 -5 -169 -131
-264 -57 -43 -89 -57 -89 -38 0 4 20 20 45 36 90 56 175 161 175 215 0 63
-115 69 -230 11 -182 -92 -374 -309 -396 -448 -7 -48 7 -79 44 -93 37 -14 160
5 272 41 85 28 255 108 315 149 35 24 70 28 62 7 -13 -34 140 -66 222 -46 49
12 56 17 158 144 120 147 282 319 328 348 35 22 58 20 63 -5z m1830 -51 c66
-34 70 -136 9 -258 -110 -223 -367 -407 -568 -408 -168 -1 -142 146 42 241 28
15 65 48 94 84 102 128 218 255 231 255 22 0 16 -14 -22 -51 -44 -41 -204
-230 -204 -240 0 -3 19 -2 43 3 57 12 239 6 244 -8 2 -7 -22 -9 -78 -6 -45 3
-114 -1 -153 -8 -61 -11 -76 -18 -107 -50 -19 -20 -48 -58 -65 -83 -28 -46
-44 -58 -44 -36 0 6 13 29 28 52 47 70 48 70 15 54 -16 -9 -48 -36 -71 -61
-65 -71 -54 -114 31 -123 161 -18 426 153 542 352 33 56 65 150 65 192 0 25
-8 43 -29 64 -26 26 -36 29 -91 29 -135 0 -314 -93 -443 -230 -37 -38 -69 -70
-72 -70 -35 0 87 133 181 197 125 85 223 122 327 122 40 1 79 -5 95 -13z m402
-71 c0 -19 -23 -56 -72 -116 -37 -46 -37 -47 -18 -64 52 -47 37 -75 -128 -248
-122 -127 -171 -195 -157 -217 29 -46 228 54 521 261 82 58 120 79 143 79 24
0 31 -4 31 -19 0 -28 -38 -51 -83 -51 -34 0 -40 -4 -53 -36 -12 -29 -13 -39
-2 -51 30 -36 191 7 323 87 88 53 119 64 169 57 30 -4 49 -2 62 8 24 18 44 19
44 3 0 -7 -14 -33 -30 -58 -34 -51 -40 -97 -12 -102 57 -12 256 70 329 136 66
59 68 41 3 -36 -54 -65 -69 -88 -55 -88 2 0 41 30 86 66 134 108 159 124 196
124 44 0 44 -24 -2 -107 -19 -35 -35 -66 -35 -68 0 -3 23 9 50 26 28 17 65 32
83 33 31 1 32 -1 35 -41 3 -39 6 -43 29 -43 34 0 169 73 234 125 59 49 123 73
145 54 20 -16 18 -31 -8 -59 -14 -15 -23 -19 -26 -11 -2 7 4 21 14 32 16 18
16 19 -5 19 -43 0 -129 -62 -131 -94 0 -4 34 -5 75 -1 65 6 75 5 75 -9 0 -9 3
-16 8 -16 4 0 71 18 150 40 153 43 162 45 162 31 0 -5 -37 -19 -82 -31 -199
-53 -241 -70 -288 -115 -72 -69 -143 -95 -157 -58 -9 22 25 48 115 90 39 18
72 38 72 43 0 6 -27 8 -70 4 -58 -6 -71 -4 -76 9 -5 13 -20 8 -90 -29 -59 -30
-97 -44 -124 -44 l-40 0 0 45 c0 25 -5 45 -10 45 -6 0 -45 -20 -88 -45 -86
-50 -111 -48 -78 8 42 71 76 132 76 140 0 4 -8 7 -18 7 -15 0 -53 -27 -246
-175 -32 -25 -64 -44 -69 -42 -20 6 -18 23 7 60 14 20 24 37 22 37 -2 0 -33
-13 -69 -30 -162 -73 -237 -75 -237 -5 0 20 7 49 15 66 15 27 8 24 -83 -36
-129 -86 -190 -99 -183 -38 1 7 -28 1 -79 -18 -137 -50 -230 -36 -216 32 5 26
-1 24 -117 -52 -229 -150 -386 -216 -425 -177 -33 33 0 86 150 246 71 75 136
150 144 165 14 26 14 31 -2 48 -9 10 -21 19 -27 19 -5 0 -47 -36 -94 -80 -91
-87 -123 -109 -123 -88 0 7 24 32 53 55 28 23 71 62 95 86 42 43 43 43 22 62
-25 23 -25 40 1 76 41 58 169 113 169 74z m-1690 -854 c0 -6 -15 -11 -32 -13
-30 -3 -33 -6 -33 -38 0 -32 3 -35 33 -38 37 -4 44 -22 8 -22 -38 0 -57 11
-67 37 -9 25 2 60 25 75 16 11 66 10 66 -1z m229 -47 c20 -54 20 -88 0 -51
-12 21 -55 23 -63 2 -3 -8 -10 -15 -15 -15 -7 0 -7 8 -2 23 27 67 42 97 50 97
4 0 18 -25 30 -56z m241 46 c0 -5 -11 -10 -25 -10 -16 0 -25 -6 -25 -15 0 -9
10 -15 26 -15 14 0 23 -4 19 -10 -3 -5 -15 -10 -26 -10 -14 0 -19 -7 -19 -25
0 -14 -4 -25 -10 -25 -6 0 -10 27 -10 60 l0 60 35 0 c19 0 35 -4 35 -10z m230
0 c0 -5 -11 -10 -25 -10 -16 0 -25 -6 -25 -15 0 -9 10 -15 26 -15 14 0 23 -4
19 -10 -3 -5 -15 -10 -26 -10 -10 0 -19 -7 -19 -15 0 -9 9 -15 24 -15 14 0 28
-4 31 -10 4 -6 -10 -10 -34 -10 l-41 0 0 60 0 60 35 0 c19 0 35 -4 35 -10z
m428 -2 c16 -16 16 -80 0 -96 -7 -7 -29 -12 -50 -12 l-38 0 0 60 0 60 38 0
c21 0 43 -5 50 -12z m242 2 c0 -5 -11 -10 -25 -10 -16 0 -25 -6 -25 -15 0 -9
10 -15 26 -15 14 0 23 -4 19 -10 -3 -5 -15 -10 -26 -10 -10 0 -19 -7 -19 -15
0 -9 9 -15 24 -15 14 0 28 -4 31 -10 4 -6 -10 -10 -34 -10 l-41 0 0 60 0 60
35 0 c19 0 35 -4 35 -10z m-1955 -220 c-3 -5 -17 -10 -31 -10 -15 0 -24 -6
-24 -15 0 -9 10 -15 26 -15 14 0 23 -4 19 -10 -3 -5 -15 -10 -26 -10 -10 0
-19 -7 -19 -15 0 -9 9 -15 24 -15 14 0 28 -4 31 -10 4 -6 -10 -10 -34 -10
l-41 0 0 60 0 60 41 0 c24 0 38 -4 34 -10z m233 -7 c2 -9 -5 -11 -27 -7 -39 8
-41 -10 -4 -28 31 -15 42 -46 21 -59 -20 -13 -54 -11 -68 6 -10 12 -6 13 24 8
45 -7 49 13 6 28 -21 8 -30 17 -30 33 0 13 3 26 7 30 11 11 66 2 71 -11z m230
5 c22 -22 14 -49 -17 -61 -16 -6 -32 -19 -35 -30 -2 -10 -9 -16 -15 -12 -12 7
-15 97 -4 108 11 11 58 8 71 -5z m237 2 c-3 -5 -17 -10 -31 -10 -15 0 -24 -6
-24 -15 0 -9 10 -15 26 -15 14 0 23 -4 19 -10 -3 -5 -15 -10 -26 -10 -10 0
-19 -7 -19 -15 0 -9 9 -15 24 -15 14 0 28 -4 31 -10 4 -6 -10 -10 -34 -10
l-41 0 0 60 0 60 41 0 c24 0 38 -4 34 -10z m245 1 c0 -6 -15 -11 -32 -13 -30
-3 -33 -6 -33 -38 0 -32 3 -35 33 -38 37 -4 44 -22 8 -22 -38 0 -57 11 -67 37
-9 25 2 60 25 75 16 11 66 10 66 -1z m178 -57 c-2 -27 -7 -49 -13 -49 -11 0
-19 79 -10 103 11 30 26 -5 23 -54z m231 10 c20 -54 20 -88 0 -51 -12 21 -55
23 -63 2 -3 -8 -10 -15 -15 -15 -7 0 -7 8 -2 23 27 67 42 97 50 97 4 0 18 -25
30 -56z m191 6 c0 -47 2 -50 25 -50 14 0 25 -4 25 -10 0 -5 -16 -10 -35 -10
l-35 0 0 60 c0 33 4 60 10 60 6 0 10 -22 10 -50z m228 -16 c-2 -27 -7 -49 -13
-49 -11 0 -19 79 -10 103 11 30 26 -5 23 -54z m244 49 c43 -39 8 -107 -54
-101 -31 3 -33 5 -36 47 -2 24 -1 50 2 57 7 19 65 18 88 -3z m238 -29 c11 -25
20 -53 20 -62 -1 -15 -2 -15 -14 1 -17 22 -52 22 -65 0 -5 -10 -12 -15 -15
-12 -9 8 34 119 46 119 5 0 18 -21 28 -46z m262 29 c43 -39 8 -107 -54 -101
-31 3 -33 5 -36 47 -2 24 -1 50 2 57 7 19 65 18 88 -3z"/>
<path d="M2560 4569 c-253 -18 -470 -137 -470 -258 0 -17 6 -21 33 -21 64 0
112 -52 131 -141 7 -33 36 -39 197 -39 132 0 296 25 489 73 l125 32 2 40 c5
89 91 138 176 101 28 -13 20 10 -18 52 -103 115 -379 182 -665 161z"/>
<path d="M3116 4323 c-30 -30 -43 -70 -28 -85 8 -8 28 -6 69 5 32 8 70 18 86
21 39 9 38 50 -3 71 -46 24 -93 19 -124 -12z"/>
<path d="M2111 4230 c21 -37 69 -77 112 -93 15 -5 16 -2 11 21 -18 73 -57 112
-112 112 l-33 0 22 -40z"/>
<path d="M3260 4219 c-42 -49 -96 -62 -149 -34 -31 16 -37 15 -149 -14 -264
-68 -522 -97 -647 -74 l-50 9 0 -140 c0 -164 -6 -200 -42 -252 l-26 -39 24
-45 c13 -24 53 -75 88 -113 159 -168 441 -225 641 -128 56 27 180 134 180 156
0 6 -9 20 -20 30 -50 45 0 114 101 138 22 6 30 19 57 104 52 159 74 337 53
412 -10 37 -23 35 -61 -10z"/>
<path d="M3335 4243 c26 -67 2 -278 -50 -437 -14 -43 -24 -80 -23 -81 2 -1 32
-8 68 -15 36 -6 87 -20 114 -31 47 -18 51 -18 69 -1 32 28 87 120 108 180 26
74 28 200 4 260 -34 83 -134 142 -243 142 -48 0 -53 -2 -47 -17z"/>
<path d="M2071 4215 c-1 -66 46 -317 80 -421 l31 -97 23 24 c29 29 45 114 45
240 0 131 -5 147 -56 171 -41 19 -82 58 -111 104 -10 17 -12 14 -12 -21z"/>
<path d="M3190 4234 c-86 -23 -87 -23 -70 -34 21 -14 82 -12 100 3 22 18 44
47 34 46 -5 0 -34 -7 -64 -15z"/>
<path d="M3180 3684 c-47 -20 -70 -43 -70 -69 0 -22 17 -45 35 -45 10 0 80
118 74 125 -2 2 -20 -3 -39 -11z"/>
<path d="M3208 3630 c-44 -83 -41 -86 54 -76 62 6 149 40 194 75 l24 19 -62
21 c-35 12 -88 24 -118 27 l-55 6 -37 -72z"/>
<path d="M2020 3629 c-162 -48 -223 -75 -274 -120 -90 -78 -88 -178 5 -268 52
-49 193 -125 275 -146 93 -24 179 -17 160 14 -12 19 3 67 29 95 47 51 119 23
96 -37 -5 -13 -28 -40 -52 -60 l-42 -37 64 -29 c106 -50 221 -65 484 -65 181
-1 251 3 330 18 255 47 469 135 583 240 55 51 72 83 72 141 0 87 -71 175 -189
235 l-61 30 -41 -30 c-67 -48 -144 -73 -232 -74 -76 -2 -77 -2 -108 -39 -45
-55 -145 -122 -219 -148 -82 -28 -223 -31 -320 -6 -160 42 -298 143 -370 270
-17 31 -37 57 -43 56 -7 0 -73 -18 -147 -40z"/>
<path d="M2249 3206 c-41 -20 -69 -106 -34 -106 21 0 85 67 85 89 0 25 -21 32
-51 17z"/>
<path d="M1452 2798 c-46 -37 -142 -140 -248 -268 -110 -133 -109 -138 8 -42
84 67 218 207 264 276 51 76 44 87 -24 34z"/>
<path d="M1704 2758 c-79 -75 -297 -329 -289 -336 2 -3 36 21 74 52 166 134
354 356 301 356 -5 0 -44 -33 -86 -72z"/>
<path d="M1664 2365 c-19 -14 -19 -14 2 -15 11 0 29 7 40 15 19 14 19 14 -2
15 -11 0 -29 -7 -40 -15z"/>
<path d="M2023 2373 c-7 -2 -13 -9 -13 -14 0 -14 24 -11 46 6 19 14 19 14 -1
14 -11 0 -26 -3 -32 -6z"/>
<path d="M662 2322 c-29 -27 -51 -77 -39 -88 13 -13 46 9 60 39 37 81 30 97
-21 49z"/>
<path d="M915 2311 l-60 -6 58 -13 c45 -11 61 -11 72 -2 18 15 19 31 3 28 -7
-1 -40 -4 -73 -7z"/>
<path d="M1254 2295 c-16 -12 -16 -14 -3 -15 9 0 22 7 29 15 16 19 0 19 -26 0z"/>
<path d="M3705 2688 c-86 -45 -125 -88 -104 -114 20 -24 34 -16 83 46 49 62
57 87 21 68z"/>
<path d="M4013 2373 c-7 -2 -13 -9 -13 -14 0 -14 24 -11 46 6 19 14 19 14 -1
14 -11 0 -26 -3 -32 -6z"/>
<path d="M4324 2335 c-86 -52 -126 -105 -66 -90 32 7 182 103 182 116 0 20
-60 7 -116 -26z"/>
<path d="M5458 2193 c-50 -27 -65 -49 -25 -38 22 7 87 52 87 61 0 9 -16 3 -62
-23z"/>
<path d="M2256 1805 c-3 -9 0 -15 9 -15 16 0 20 16 6 24 -5 3 -11 -1 -15 -9z"/>
<path d="M3130 1800 c0 -39 1 -41 28 -38 24 3 27 7 27 38 0 31 -3 35 -27 38
-27 3 -28 1 -28 -38z"/>
<path d="M1900 1599 c0 -14 5 -19 17 -17 26 5 29 38 4 38 -15 0 -21 -6 -21
-21z"/>
<path d="M2796 1585 c-3 -9 0 -15 9 -15 16 0 20 16 6 24 -5 3 -11 -1 -15 -9z"/>
<path d="M3440 1580 c0 -36 3 -40 24 -40 27 0 41 27 31 60 -4 13 -15 20 -31
20 -21 0 -24 -4 -24 -40z"/>
<path d="M3705 1590 c-8 -13 -1 -24 14 -19 6 3 7 10 2 18 -6 10 -10 10 -16 1z"/>
<path d="M3940 1580 c0 -36 3 -40 24 -40 27 0 41 27 31 60 -4 13 -15 20 -31
20 -21 0 -24 -4 -24 -40z"/>
</g>
</svg>
